<svg width="24" height="20" viewBox="0 0 24 20" fill="none" xmlns="http://www.w3.org/2000/svg">
<path d="M23.9936 1.71226C23.6614 5.22571 22.2216 13.7648 21.4906 17.7007C21.1805 19.3685 20.5603 19.9244 19.9844 19.9911C18.6997 20.1023 17.7251 19.1461 16.4847 18.3234C14.5355 17.0336 13.428 16.2331 11.5453 14.9878C9.3524 13.5424 10.77 12.7418 12.0326 11.4521C12.3648 11.1185 18.0352 5.9373 18.146 5.47032C18.1614 5.39959 18.1593 5.32616 18.14 5.25641C18.1207 5.18665 18.0847 5.12268 18.0352 5.07005C17.9023 4.95887 17.7251 5.00334 17.5701 5.02558C17.3707 5.07005 14.2697 7.1381 8.22275 11.2297C7.33674 11.8301 6.53934 12.1414 5.83053 12.1192C5.03313 12.097 3.52693 11.6745 2.39727 11.2964C1.00182 10.8517 -0.0835378 10.6071 0.00506253 9.82879C0.0493627 9.42852 0.603115 9.02825 1.64417 8.60575C8.11199 5.78164 12.4091 3.91373 14.5577 3.02424C20.7154 0.444742 21.9779 0 22.8197 0C22.9969 0 23.4177 0.0444734 23.6835 0.266844C23.905 0.444741 23.9715 0.68935 23.9936 0.867247C23.9715 1.00067 24.0158 1.40094 23.9936 1.71226Z" fill="#F2F2F2"/>
<path d="M23.9936 1.71226C23.6614 5.22571 22.2216 13.7648 21.4906 17.7007C21.1805 19.3685 20.5603 19.9244 19.9844 19.9911C18.6997 20.1023 17.7251 19.1461 16.4847 18.3234C14.5355 17.0336 13.428 16.2331 11.5453 14.9878C9.3524 13.5424 10.77 12.7418 12.0326 11.4521C12.3648 11.1185 18.0352 5.9373 18.146 5.47032C18.1614 5.39959 18.1593 5.32616 18.14 5.25641C18.1207 5.18665 18.0847 5.12268 18.0352 5.07005C17.9023 4.95887 17.7251 5.00334 17.5701 5.02558C17.3707 5.07005 14.2697 7.1381 8.22275 11.2297C7.33674 11.8301 6.53934 12.1414 5.83053 12.1192C5.03313 12.097 3.52693 11.6745 2.39727 11.2964C1.00182 10.8517 -0.0835378 10.6071 0.00506253 9.82879C0.0493627 9.42852 0.603115 9.02825 1.64417 8.60575C8.11199 5.78164 12.4091 3.91373 14.5577 3.02424C20.7154 0.444742 21.9779 0 22.8197 0C22.9969 0 23.4177 0.0444734 23.6835 0.266844C23.905 0.444741 23.9715 0.68935 23.9936 0.867247C23.9715 1.00067 24.0158 1.40094 23.9936 1.71226Z" fill="#494450"/>
</svg>
