<svg width="154" height="42" viewBox="0 0 154 42" fill="none" xmlns="http://www.w3.org/2000/svg">
<path fill-rule="evenodd" clip-rule="evenodd" d="M3.0288 39.6337V42H43.009V2.95774H40.586V39.6337H3.0288Z" fill="#F6F6F6"/>
<path fill-rule="evenodd" clip-rule="evenodd" d="M39.9802 0H0V39.0423H39.9802V0ZM12.1152 32.5352V5.91548H18.9165V17.9021H23.6126V20.3929H18.9165V25.8934C18.9165 29.5616 15.8714 32.5352 12.1152 32.5352ZM28.4707 32.5352H20.212L28.4707 25.6857V32.5352ZM28.4707 5.91548V12.298L20.5359 5.91548H28.4707Z" fill="#F6F6F6"/>
<path fill-rule="evenodd" clip-rule="evenodd" d="M58.2703 2.70968V25.7419C61.6812 25.7419 64.4464 23.0417 64.4464 19.7107V15.5054H68.6925V12.9462H64.4464V2.70968H58.2703ZM65.6044 25.7419H72.9385V19.8925L65.6044 25.7419ZM72.9385 8.19355V2.70968H65.6044L72.9385 8.19355Z" fill="#F6F6F6"/>
<path d="M77.5706 25.7419H83.7467V7.46237L77.5706 11.8495V25.7419Z" fill="#F6F6F6"/>
<path d="M89.1508 25.7419H95.3269V10.3871C94.8766 9.41219 93.3197 7.46237 90.6949 7.46237C88.07 7.46237 85.9984 9.41219 85.2908 10.3871H89.1508V25.7419Z" fill="#F6F6F6"/>
<path d="M125.821 8.37635C124.168 8.37635 122.787 7.19922 122.733 5.63441C122.678 4.01997 124.116 2.70968 125.821 2.70968C127.527 2.70968 128.965 4.01997 128.91 5.63441C128.856 7.19922 127.475 8.37635 125.821 8.37635Z" fill="#F6F6F6"/>
<path d="M122.733 10.3871H128.91V22.8172H132.77C132.448 23 131.612 23.7312 130.261 24.6452C128.925 25.5487 128.524 25.7419 126.98 25.7419C124.634 25.7419 122.733 23.8855 122.733 21.5955V10.3871Z" fill="#F6F6F6"/>
<path d="M135.858 25.7419H142.034V18.0645V2.70968L135.858 7.27957V25.7419Z" fill="#F6F6F6"/>
<path d="M146.666 12.5806V7.46237H153.228L146.666 12.5806Z" fill="#F6F6F6"/>
<path d="M146.666 14.4086L142.034 18.0645L146.859 25.7419H154L146.666 14.4086Z" fill="#F6F6F6"/>
<path d="M108.065 16.9677H116.943C117.715 16.0538 117.859 14.7614 117.715 13.3118C117.359 9.72639 115.013 7.46237 110.188 7.46237C111.974 9.39991 112.697 10.9355 112.311 13.3118C112.004 15.2021 110.188 15.871 108.065 16.9677Z" fill="#F6F6F6"/>
<path d="M108.065 7.46237C101.842 8.92062 100.345 12.2151 100.345 16.9677C100.345 21.7204 104.661 25.7419 109.995 25.7419C115.206 25.7419 116.943 22.8172 116.943 22.8172C113.212 23 105.295 21.416 105.749 13.6774C105.942 10.3871 107.679 8.19355 108.065 7.46237Z" fill="#F6F6F6"/>
<path d="M60.8561 39.6107C60.3222 39.6107 59.8506 39.5012 59.4413 39.2823C59.032 39.0547 58.7117 38.7395 58.4804 38.3367C58.2579 37.9252 58.1467 37.4524 58.1467 36.9183H59.1076C59.1076 37.4612 59.2678 37.9033 59.5881 38.2448C59.9173 38.5775 60.3489 38.7439 60.8827 38.7439H62.3642C62.8892 38.7439 63.3118 38.63 63.6322 38.4024C63.9525 38.166 64.1126 37.8595 64.1126 37.483V36.6425C64.1126 36.3448 63.9925 36.0909 63.7523 35.8808C63.5209 35.6706 63.2006 35.5349 62.7913 35.4736L60.3889 35.0796C59.7127 34.9658 59.1877 34.7294 58.814 34.3704C58.4403 34.0114 58.2535 33.5605 58.2535 33.0177V32.3085C58.2535 31.6693 58.4937 31.1615 58.9742 30.785C59.4636 30.3997 60.1086 30.2071 60.9094 30.2071H62.4176C63.1739 30.2071 63.7834 30.4347 64.2461 30.89C64.7088 31.3366 64.9401 31.9276 64.9401 32.6631H63.9792C63.9792 32.1815 63.8368 31.7962 63.5521 31.5073C63.2674 31.2184 62.8892 31.0739 62.4176 31.0739H60.9094C60.4023 31.0739 59.9974 31.1877 59.6949 31.4154C59.3924 31.6343 59.2411 31.932 59.2411 32.3085V33.0177C59.2411 33.3241 59.3523 33.5824 59.5748 33.7925C59.8061 34.0027 60.122 34.1428 60.5224 34.2128L62.9114 34.6199C63.6055 34.7425 64.1438 34.9789 64.5264 35.3292C64.909 35.6706 65.1003 36.1084 65.1003 36.6425V37.483C65.1003 38.1222 64.8512 38.6388 64.3529 39.0328C63.8546 39.4181 63.2006 39.6107 62.3909 39.6107H60.8561Z" fill="#F6F6F6"/>
<path d="M74.5091 39.5056C74.2332 39.5056 74.0197 39.4312 73.8684 39.2823C73.7172 39.1247 73.6415 38.9102 73.6415 38.6388V30.3121H79.9145V31.1527H74.6292V34.3835H79.5141V35.2241H74.6292V38.6651H79.9145V39.5056H74.5091Z" fill="#F6F6F6"/>
<path d="M88.4511 30.3121H92.989C93.6741 30.3121 94.2213 30.5048 94.6306 30.89C95.0488 31.2665 95.2579 31.7656 95.2579 32.3872V33.346C95.2579 33.81 95.1067 34.2216 94.8041 34.5805C94.5016 34.9308 94.0968 35.1803 93.5896 35.3292V35.3423C93.8565 35.4824 94.0968 35.7057 94.3103 36.0121C94.5328 36.3186 94.7018 36.6644 94.8175 37.0496L95.5516 39.5056H94.5372L93.8031 37.0496C93.6786 36.6206 93.4606 36.2748 93.1491 36.0121C92.8466 35.7494 92.513 35.6181 92.1482 35.6181H89.4388V39.5056H88.4511V30.3121ZM92.642 34.7513C93.1314 34.7513 93.5229 34.6243 93.8165 34.3704C94.119 34.1077 94.2703 33.7663 94.2703 33.346V32.3347C94.2703 31.9845 94.1502 31.7043 93.9099 31.4942C93.6697 31.284 93.3538 31.179 92.9623 31.179H89.4388V34.7513H92.642Z" fill="#F6F6F6"/>
<path d="M107.062 39.5056C106.893 39.5056 106.75 39.4575 106.634 39.3611C106.528 39.2648 106.434 39.1116 106.354 38.9015L103.164 30.3121H104.179L107.088 38.3367H107.102L110.025 30.3121H111.039L107.569 39.5056H107.062Z" fill="#F6F6F6"/>
<path d="M119.338 30.3121H120.325V39.5056H119.338V30.3121Z" fill="#F6F6F6"/>
<path d="M132.163 39.6107C131.566 39.6107 131.037 39.4706 130.574 39.1904C130.121 38.9102 129.765 38.5206 129.507 38.0215C129.257 37.5137 129.133 36.9314 129.133 36.2748V33.543C129.133 32.8863 129.257 32.3041 129.507 31.7962C129.765 31.2884 130.125 30.8988 130.588 30.6274C131.059 30.3472 131.602 30.2071 132.216 30.2071H133.631C134.209 30.2071 134.716 30.3297 135.152 30.5748C135.597 30.82 135.94 31.1658 136.18 31.6124C136.429 32.0589 136.554 32.5711 136.554 33.149H135.593C135.593 32.5273 135.41 32.0283 135.045 31.6518C134.69 31.2665 134.218 31.0739 133.631 31.0739H132.216C131.584 31.0739 131.077 31.3015 130.694 31.7568C130.312 32.2034 130.121 32.7988 130.121 33.543V36.2748C130.121 37.019 130.307 37.6188 130.681 38.0741C131.055 38.5206 131.549 38.7439 132.163 38.7439H133.604C134.209 38.7439 134.694 38.5337 135.059 38.1135C135.433 37.6932 135.619 37.1416 135.619 36.4586H136.58C136.58 37.0803 136.456 37.6319 136.207 38.1135C135.958 38.5863 135.606 38.954 135.152 39.2167C134.707 39.4793 134.191 39.6107 133.604 39.6107H132.163Z" fill="#F6F6F6"/>
<path d="M145.885 39.5056C145.609 39.5056 145.396 39.4312 145.244 39.2823C145.093 39.1247 145.018 38.9102 145.018 38.6388V30.3121H151.29V31.1527H146.005V34.3835H150.89V35.2241H146.005V38.6651H151.29V39.5056H145.885Z" fill="#F6F6F6"/>
</svg>
