<svg width="20" height="22" viewBox="0 0 20 22" fill="none" xmlns="http://www.w3.org/2000/svg">
<path d="M19 2L13 2M19 6L13 6M19 10L13 10M3.5 12.7578V3.5C3.5 2.11929 4.61929 1 6 1C7.38071 1 8.5 2.11929 8.5 3.5V12.7578C9.70599 13.565 10.5 14.9398 10.5 16.5C10.5 18.9853 8.48528 21 6 21C3.51472 21 1.5 18.9853 1.5 16.5C1.5 14.9398 2.29401 13.565 3.5 12.7578ZM7 16.5C7 17.0523 6.55228 17.5 6 17.5C5.44772 17.5 5 17.0523 5 16.5C5 15.9477 5.44772 15.5 6 15.5C6.55228 15.5 7 15.9477 7 16.5Z" stroke="white" stroke-width="1.5" stroke-linecap="round" stroke-linejoin="round"/>
</svg>
