<svg width="24" height="24" viewBox="0 0 24 24" fill="none" xmlns="http://www.w3.org/2000/svg">
<path d="M20.5698 3.42969H22.284C22.5114 3.42969 22.7294 3.51999 22.8901 3.68074C23.0509 3.84148 23.1412 4.0595 23.1412 4.28683V18.0011C23.1412 18.2284 23.0509 18.4465 22.8901 18.6072C22.7294 18.768 22.5114 18.8583 22.284 18.8583H1.71261C1.48528 18.8583 1.26727 18.768 1.10652 18.6072C0.945775 18.4465 0.855469 18.2284 0.855469 18.0011V4.28683C0.855469 4.0595 0.945775 3.84148 1.10652 3.68074C1.26727 3.51999 1.48528 3.42969 1.71261 3.42969H3.4269" stroke="white" stroke-width="1.5" stroke-linecap="round" stroke-linejoin="round"/>
<path d="M10.2846 18.8594L8.57031 23.1451" stroke="white" stroke-linecap="round" stroke-linejoin="round"/>
<path d="M13.7109 18.8594L15.4252 23.1451" stroke="white" stroke-linecap="round" stroke-linejoin="round"/>
<path d="M6.85547 23.1445H17.1412" stroke="white" stroke-linecap="round" stroke-linejoin="round"/>
<path d="M8.57031 4.28795C8.57031 3.60984 8.77139 2.94696 9.14813 2.38314C9.52487 1.81931 10.0603 1.37986 10.6868 1.12036C11.3133 0.860861 12.0027 0.792963 12.6678 0.925256C13.3328 1.05755 13.9438 1.38409 14.4232 1.86358C14.9027 2.34308 15.2293 2.95399 15.3616 3.61907C15.4939 4.28414 15.426 4.97352 15.1665 5.60001C14.907 6.2265 14.4675 6.76196 13.9037 7.1387C13.3399 7.51544 12.677 7.71652 11.9989 7.71652V9.43081" stroke="white" stroke-width="1.5" stroke-linecap="round" stroke-linejoin="round"/>
<path d="M11.9989 14.5759C11.7622 14.5759 11.5703 14.384 11.5703 14.1473C11.5703 13.9106 11.7622 13.7188 11.9989 13.7188" stroke="white" stroke-linecap="round" stroke-linejoin="round"/>
<path d="M12 14.5759C12.2367 14.5759 12.4286 14.384 12.4286 14.1473C12.4286 13.9106 12.2367 13.7188 12 13.7188" stroke="white" stroke-width="1.5" stroke-linecap="round" stroke-linejoin="round"/>
</svg>
