<svg width="24" height="20" viewBox="0 0 24 20" fill="none" xmlns="http://www.w3.org/2000/svg">
<path d="M4.28759 11.7129L1.23616 16.0843C1.09852 16.3524 1.03397 16.652 1.04901 16.953C1.06406 17.2539 1.15818 17.5456 1.32187 17.7986C1.47628 18.0457 1.6911 18.2493 1.94605 18.3903C2.20101 18.5312 2.48768 18.6049 2.77902 18.6043H21.2247C21.5161 18.6049 21.8027 18.5312 22.0577 18.3903C22.3126 18.2493 22.5275 18.0457 22.6819 17.7986C22.8323 17.538 22.9115 17.2424 22.9115 16.9415C22.9115 16.6405 22.8323 16.3449 22.6819 16.0843L19.7162 11.7129" stroke="white" stroke-linecap="round" stroke-linejoin="round"/>
<path d="M6.00335 1.42773C5.54869 1.42773 5.11266 1.60835 4.79117 1.92984C4.46967 2.25133 4.28906 2.68736 4.28906 3.14202V11.7134H19.7176V3.14202C19.7176 2.68736 19.537 2.25133 19.2155 1.92984C18.894 1.60835 18.458 1.42773 18.0033 1.42773H6.00335Z" stroke="white" stroke-linecap="round" stroke-linejoin="round"/>
</svg>
