<svg width="19" height="19" viewBox="0 0 19 19" fill="none" xmlns="http://www.w3.org/2000/svg">
<path d="M12.499 2.33333V6.5M12.499 6.5L16.6657 6.5M12.499 6.5L17.499 1.5M8.52155 10.5526C7.52023 9.55124 6.72958 8.41904 6.14958 7.21102C6.09969 7.10712 6.07475 7.05516 6.05558 6.98942C5.98748 6.75579 6.0364 6.46891 6.17807 6.27105C6.21794 6.21537 6.26557 6.16774 6.36083 6.07248C6.65217 5.78115 6.79784 5.63548 6.89308 5.48899C7.25224 4.93659 7.25224 4.22443 6.89308 3.67203C6.79784 3.52554 6.65217 3.37988 6.36083 3.08854L6.19844 2.92615C5.75557 2.48328 5.53414 2.26184 5.29632 2.14156C4.82335 1.90233 4.2648 1.90233 3.79183 2.14156C3.55401 2.26184 3.33258 2.48328 2.88971 2.92615L2.75835 3.05751C2.31699 3.49886 2.09632 3.71954 1.92778 4.01956C1.74076 4.35249 1.60629 4.86956 1.60743 5.25141C1.60845 5.59554 1.67521 5.83072 1.80871 6.30109C2.52619 8.82892 3.87992 11.2142 5.8699 13.2042C7.85988 15.1942 10.2452 16.5479 12.773 17.2654C13.2434 17.3989 13.4786 17.4657 13.8227 17.4667C14.2045 17.4678 14.7216 17.3333 15.0545 17.1463C15.3546 16.9778 15.5752 16.7571 16.0166 16.3158L16.148 16.1844C16.5908 15.7415 16.8123 15.5201 16.9325 15.2823C17.1718 14.8093 17.1718 14.2508 16.9325 13.7778C16.8123 13.54 16.5908 13.3185 16.148 12.8757L15.9856 12.7133C15.6942 12.4219 15.5486 12.2763 15.4021 12.181C14.8497 11.8219 14.1375 11.8219 13.5851 12.181C13.4386 12.2763 13.293 12.4219 13.0016 12.7133C12.9064 12.8085 12.8587 12.8562 12.8031 12.896C12.6052 13.0377 12.3183 13.0866 12.0847 13.0185C12.0189 12.9994 11.967 12.9744 11.8631 12.9245C10.6551 12.3445 9.52286 11.5539 8.52155 10.5526Z" stroke="white" stroke-width="1.5" stroke-linecap="round" stroke-linejoin="round"/>
</svg>
