<svg width="24" height="24" viewBox="0 0 24 24" fill="none" xmlns="http://www.w3.org/2000/svg">
<path d="M4.28404 12.8594H5.99833C6.45298 12.8594 6.88902 13.04 7.21051 13.3615C7.532 13.683 7.71261 14.119 7.71261 14.5737V21.4308C7.71261 21.8855 7.532 22.3215 7.21051 22.643C6.88902 22.9645 6.45298 23.1451 5.99833 23.1451H2.56975C2.1151 23.1451 1.67906 22.9645 1.35757 22.643C1.03608 22.3215 0.855469 21.8855 0.855469 21.4308V12.0022C0.855469 9.04696 2.02944 6.21273 4.11914 4.12304C6.20883 2.03335 9.04306 0.859375 11.9983 0.859375C14.9536 0.859375 17.7878 2.03335 19.8775 4.12304C21.9672 6.21273 23.1412 9.04696 23.1412 12.0022V21.4308C23.1412 21.8855 22.9606 22.3215 22.6391 22.643C22.3176 22.9645 21.8816 23.1451 21.4269 23.1451H17.9983C17.5437 23.1451 17.1076 22.9645 16.7861 22.643C16.4647 22.3215 16.284 21.8855 16.284 21.4308V14.5737C16.284 14.119 16.4647 13.683 16.7861 13.3615C17.1076 13.04 17.5437 12.8594 17.9983 12.8594H19.7126" stroke="white" stroke-linecap="round" stroke-linejoin="round"/>
</svg>
