<svg width="24" height="24" viewBox="0 0 24 24" fill="none" xmlns="http://www.w3.org/2000/svg">
<path d="M20.5698 3.42969H22.284C22.5114 3.42969 22.7294 3.51999 22.8901 3.68074C23.0509 3.84148 23.1412 4.0595 23.1412 4.28683V18.0011C23.1412 18.2284 23.0509 18.4465 22.8901 18.6072C22.7294 18.768 22.5114 18.8583 22.284 18.8583H1.71261C1.48528 18.8583 1.26727 18.768 1.10652 18.6072C0.945775 18.4465 0.855469 18.2284 0.855469 18.0011V4.28683C0.855469 4.0595 0.945775 3.84148 1.10652 3.68074C1.26727 3.51999 1.48528 3.42969 1.71261 3.42969H3.4269" stroke="#494450" stroke-width="1.5" stroke-linecap="round" stroke-linejoin="round"/>
<path d="M10.2846 18.8574L8.57031 23.1431" stroke="#494450" stroke-linecap="round" stroke-linejoin="round"/>
<path d="M13.7109 18.8574L15.4252 23.1431" stroke="#494450" stroke-linecap="round" stroke-linejoin="round"/>
<path d="M6.85547 23.1426H17.1412" stroke="#494450" stroke-linecap="round" stroke-linejoin="round"/>
<path d="M8.57031 4.28599C8.57031 3.60789 8.77139 2.94501 9.14813 2.38118C9.52487 1.81736 10.0603 1.37791 10.6868 1.11841C11.3133 0.858907 12.0027 0.79101 12.6678 0.923302C13.3328 1.05559 13.9438 1.38213 14.4232 1.86163C14.9027 2.34112 15.2293 2.95204 15.3616 3.61711C15.4939 4.28219 15.426 4.97156 15.1665 5.59805C14.907 6.22454 14.4675 6.76001 13.9037 7.13675C13.3399 7.51348 12.677 7.71457 11.9989 7.71457V9.42885" stroke="#494450" stroke-width="1.5" stroke-linecap="round" stroke-linejoin="round"/>
<path d="M11.9989 14.572C11.7622 14.572 11.5703 14.3801 11.5703 14.1434C11.5703 13.9067 11.7622 13.7148 11.9989 13.7148" stroke="#494450" stroke-linecap="round" stroke-linejoin="round"/>
<path d="M12 14.572C12.2367 14.572 12.4286 14.3801 12.4286 14.1434C12.4286 13.9067 12.2367 13.7148 12 13.7148" stroke="#494450" stroke-width="1.5" stroke-linecap="round" stroke-linejoin="round"/>
</svg>
