<svg width="26" height="26" viewBox="0 0 26 26" fill="none" xmlns="http://www.w3.org/2000/svg">
<path d="M23.1538 13.9231H2.84615C1.82655 13.9231 1 14.7496 1 15.7692V23.1539C1 24.1735 1.82655 25 2.84615 25H23.1538C24.1734 25 25 24.1735 25 23.1539V15.7692C25 14.7496 24.1734 13.9231 23.1538 13.9231Z" stroke="white" stroke-width="1.5" stroke-linecap="round" stroke-linejoin="round"/>
<path d="M1.16406 14.9944L4.37637 2.44055C4.46817 2.03346 4.69519 1.66948 5.0204 1.40797C5.34561 1.14646 5.74983 1.00285 6.16714 1.00055H19.8287C20.2554 0.990121 20.6726 1.12791 21.0092 1.39046C21.3458 1.65301 21.581 2.02409 21.6748 2.44055L24.8871 14.9944" stroke="white" stroke-width="1.5" stroke-linecap="round" stroke-linejoin="round"/>
<path d="M6.54004 19.4612H12.0785" stroke="white" stroke-width="1.5" stroke-linecap="round" stroke-linejoin="round"/>
<path d="M19.4612 20.3861C19.971 20.3861 20.3842 19.9729 20.3842 19.4631C20.3842 18.9533 19.971 18.54 19.4612 18.54C18.9514 18.54 18.5381 18.9533 18.5381 19.4631C18.5381 19.9729 18.9514 20.3861 19.4612 20.3861Z" stroke="white" stroke-width="1.5" stroke-linecap="round" stroke-linejoin="round"/>
</svg>
