<svg width="16" height="15" viewBox="0 0 16 15" fill="none" xmlns="http://www.w3.org/2000/svg">
<path d="M7.46199 1.58993C7.63485 1.23972 7.72128 1.06462 7.83862 1.00867C7.94071 0.959999 8.05932 0.959999 8.1614 1.00867C8.27874 1.06462 8.36517 1.23972 8.53804 1.58993L10.178 4.9124C10.2291 5.01579 10.2546 5.06748 10.2919 5.10762C10.3249 5.14316 10.3645 5.17195 10.4085 5.1924C10.4582 5.21551 10.5152 5.22384 10.6293 5.24052L14.2977 5.77672C14.684 5.83318 14.8772 5.86141 14.9666 5.95577C15.0444 6.03786 15.0809 6.15066 15.0661 6.26277C15.0491 6.39162 14.9093 6.52782 14.6296 6.80022L11.9761 9.38475C11.8934 9.46532 11.852 9.5056 11.8253 9.55354C11.8017 9.59597 11.7865 9.6426 11.7807 9.69082C11.7741 9.74528 11.7838 9.80218 11.8034 9.91599L12.4295 13.5665C12.4955 13.9516 12.5285 14.1441 12.4665 14.2583C12.4125 14.3577 12.3165 14.4274 12.2053 14.448C12.0775 14.4717 11.9046 14.3808 11.5588 14.199L8.27928 12.4743C8.1771 12.4206 8.12601 12.3937 8.07218 12.3832C8.02452 12.3738 7.9755 12.3738 7.92784 12.3832C7.87402 12.3937 7.82293 12.4206 7.72074 12.4743L4.44119 14.199C4.09544 14.3808 3.92256 14.4717 3.79473 14.448C3.68351 14.4274 3.58754 14.3577 3.53355 14.2583C3.4715 14.1441 3.50452 13.9516 3.57056 13.5665L4.19666 9.91599C4.21618 9.80218 4.22594 9.74528 4.21934 9.69082C4.21349 9.6426 4.19833 9.59597 4.1747 9.55354C4.14802 9.5056 4.10666 9.46532 4.02394 9.38475L1.37042 6.80022C1.09075 6.52782 0.950911 6.39162 0.933895 6.26277C0.91909 6.15066 0.955665 6.03786 1.03344 5.95577C1.12283 5.86141 1.31598 5.83318 1.70228 5.77672L5.37073 5.24052C5.48482 5.22384 5.54186 5.21551 5.59154 5.1924C5.63552 5.17195 5.67512 5.14316 5.70814 5.10762C5.74543 5.06748 5.77095 5.01579 5.82198 4.9124L7.46199 1.58993Z" fill="white"/>
</svg>
