<svg width="24" height="24" viewBox="0 0 24 24" fill="none" xmlns="http://www.w3.org/2000/svg">
<path d="M23.1412 12.0022C23.1412 14.2061 22.4877 16.3604 21.2633 18.1929C20.0389 20.0253 18.2986 21.4535 16.2625 22.2969C14.2264 23.1403 11.986 23.3609 9.82447 22.931C7.66296 22.501 5.6775 21.4398 4.11914 19.8814C2.56078 18.3231 1.49953 16.3376 1.06958 14.1761C0.639631 12.0146 0.860297 9.77414 1.70367 7.73805C2.54705 5.70195 3.97526 3.96168 5.80769 2.73729C7.64012 1.51289 9.79448 0.859375 11.9983 0.859375" stroke="white" stroke-linecap="round" stroke-linejoin="round"/>
<path d="M11.9988 7.71875V12.0045L7.64453 17.0787" stroke="white" stroke-linecap="round" stroke-linejoin="round"/>
<path d="M17.1406 0.859375H23.1406L17.1406 7.71652H23.1406" stroke="white" stroke-linecap="round" stroke-linejoin="round"/>
</svg>
