<svg width="24" height="24" viewBox="0 0 24 24" fill="none" xmlns="http://www.w3.org/2000/svg">
<path d="M7.9706 3.83984L7.30202 3.99413C7.36258 4.25763 7.37014 4.53054 7.32429 4.79699C7.27843 5.06345 7.18007 5.31813 7.03491 5.54623C6.88976 5.77433 6.70071 5.9713 6.47875 6.12569C6.2568 6.28008 6.00637 6.38881 5.74202 6.44556C5.20598 6.55832 4.6471 6.45627 4.1855 6.16136C3.7239 5.86645 3.39642 5.4022 3.27345 4.86841L1.93631 5.1427C1.75294 5.18271 1.57958 5.25948 1.42671 5.36837C1.27384 5.47726 1.14463 5.61601 1.04689 5.77624C0.949154 5.93647 0.884911 6.11485 0.858047 6.30061C0.831183 6.48636 0.842256 6.67563 0.890595 6.85699C0.890595 6.85699 1.50774 9.71984 2.22774 12.9427" stroke="white" stroke-linecap="round" stroke-linejoin="round"/>
<path d="M20.8284 3.82296C20.726 4.11161 20.566 4.37646 20.3582 4.60147C20.1504 4.82647 19.899 5.00694 19.6194 5.13195C19.3398 5.25696 19.0377 5.3239 18.7314 5.32871C18.4252 5.33353 18.1211 5.27612 17.8377 5.15997C17.5543 5.04382 17.2974 4.87134 17.0826 4.65298C16.8679 4.43462 16.6996 4.17493 16.5882 3.88964C16.4767 3.60435 16.4243 3.2994 16.4342 2.99327C16.444 2.68714 16.5159 2.38619 16.6455 2.10867L15.257 1.45724C14.8862 1.30272 14.4694 1.30066 14.0971 1.4515C13.7248 1.60235 13.4271 1.89392 13.2684 2.26296L7.5084 15.823L6.75412 17.5372C6.5996 17.908 6.59754 18.3248 6.74838 18.6971C6.89922 19.0694 7.1908 19.3672 7.55983 19.5258L14.5198 22.4915C14.8906 22.646 15.3074 22.6481 15.6797 22.4973C16.052 22.3464 16.3498 22.0548 16.5084 21.6858L23.0227 6.3601C23.1663 6.00372 23.1702 5.60626 23.0335 5.24715C22.8969 4.88803 22.6298 4.5937 22.2855 4.42296L20.8284 3.82296Z" stroke="white" stroke-linecap="round" stroke-linejoin="round"/>
</svg>
